PathFileType	4	(X/Y/Z)	50_2_68_p1_0-414_filt_butterworth.trc
DataRate	CameraRate	NumFrames	NumMarkers	Units	OrigDataRate	OrigDataStartFrame	OrigNumFrames
47.0	47.0	6	27	m	47.0	51	414
Frame#	Time	RHip			RKnee			RAnkle			RBigToe			RSmallToe			RHeel			LHip			LKnee			LAnkle			LBigToe			LSmallToe			LHeel			Neck			Head			Nose			RShoulder			RElbow			RWrist			RThumb			RIndex			RPinky			LShoulder			LElbow			LWrist			LThumb			LIndex			LPinky			
		X1	Y1	Z1	X2	Y2	Z2	X3	Y3	Z3	X4	Y4	Z4	X5	Y5	Z5	X6	Y6	Z6	X7	Y7	Z7	X8	Y8	Z8	X9	Y9	Z9	X10	Y10	Z10	X11	Y11	Z11	X12	Y12	Z12	X13	Y13	Z13	X14	Y14	Z14	X15	Y15	Z15	X16	Y16	Z16	X17	Y17	Z17	X18	Y18	Z18	X19	Y19	Z19	X20	Y20	Z20	X21	Y21	Z21	X22	Y22	Z22	X23	Y23	Z23	X24	Y24	Z24	X25	Y25	Z25	X26	Y26	Z26	X27	Y27	Z27	
51	1.0851063829787233	0.31610356136514567	0.6460453852023924	0.9945613823747004	0.26024200287373217	0.23824273558526304	0.9366877501786306	0.29098103882460036	-0.23457382857627398	0.984367726153682	0.2223483393736666	-0.14960716208085734	0.7369084333781462	0.2817984507764965	-0.19094720336991283	0.7803387063221014	0.287645253528138	-0.35111122228081215	1.0777443079381483	0.09362160472510235	0.6559221783933706	0.9991239604429002	0.11360696822894596	0.2103722674900676	0.989728770336604	0.10887089503349548	-0.2440921324778928	1.008006522184995	0.1032251623748415	-0.14688730633123953	0.7507919673220463	0.07045120682187889	-0.17554236155462016	0.7945052116860472	0.12117346890282925	-0.34354877767475617	1.078898172017754	0.1962024244766661	1.2254283057913358	1.0355937633837344	0.19754548577447278	1.4908461579277443	0.930807718333159	0.18242063980752715	1.364324957908972	0.8771266957831727	0.35376915555320537	1.151828645470749	0.9907056894721629	0.5278673058869223	0.9483183836387217	0.9892682081490808	0.4661691223114946	0.7881457022639755	0.8036815645620894	0.36164464503922683	0.7232175177965764	0.7920472076576103	0.3697061050918515	0.7060729865231682	0.7741423551481159	0.3961328310297237	0.6713856297472719	0.7974613083410866	0.03963094218459088	1.1551056427146853	1.0136873627670728	-0.12746109121319812	0.9242448132869324	1.050040577861843	-0.10219939501910419	0.7571475688839258	0.8669386991249319	-0.022234267656432223	0.7034145391578953	0.8465667970146658	-0.04117742947149143	0.6916368045511604	0.8065669058962848	-0.07295429334977072	0.6522098224450319	0.8244467971083378	
52	1.1063829787234043	0.31553473359505513	0.649708023982187	0.9958561940596771	0.25896583738910767	0.24081729769838095	0.9320278275071097	0.29032440030919854	-0.23461552873566419	0.9842403675122827	0.22235172638416933	-0.15075975981505585	0.7371663450433575	0.2801948599293034	-0.1900533265530127	0.7782282431017533	0.2873549252007024	-0.35240055629978606	1.0786627154140074	0.09391685936543834	0.6591459106319785	0.9993417059741275	0.11403085372558358	0.21224279356810205	0.9875304323401395	0.10822119163779734	-0.24511343732343616	1.0078312636267168	0.1034669003728845	-0.1480023288698628	0.7507834355262891	0.07067980418738473	-0.17563385845721008	0.7927157565264965	0.12070650744839194	-0.3441695612928731	1.0783997677056847	0.1964165936240521	1.225970572001515	1.036280649404417	0.19210911574043504	1.4907307105868686	0.9249632988817726	0.17960734426448519	1.3647970813326846	0.8766326383078619	0.3558227818433588	1.153766719478996	0.9909586349057685	0.5441416620341392	0.9601895409972462	0.981540548549183	0.5049344884822133	0.7970973086664674	0.804178306737678	0.4040958173556102	0.7282840950495986	0.7901782714019017	0.41177444359787163	0.7111615898103886	0.7781807336197331	0.43699950533783943	0.6795471373241995	0.801350520219595	0.039598805933716855	1.1567074379914029	1.0120901513646894	-0.14182205540141804	0.9440328270258947	1.038180333633582	-0.14763401084232602	0.759220102126137	0.8852024460567105	-0.06929233119064049	0.6942189987589416	0.8598951438359449	-0.08922316171662834	0.6853855046408712	0.8279211526946373	-0.11723910559384416	0.6514831776442308	0.8482896775773007	
53	1.127659574468085	0.3149713838400051	0.6531510876443197	0.9973518072294845	0.25786341011056013	0.2432176164648771	0.927777826005366	0.28983591021972954	-0.23447436788016618	0.9839341897342504	0.22275255745855177	-0.15122212053650272	0.736100254792966	0.27980952298624795	-0.1907192843086042	0.7775617730962099	0.2869838142965913	-0.3532240768134992	1.079429413524993	0.09440487858433129	0.6620567293809734	0.9995573489852776	0.11447366941760055	0.2142380098831579	0.9853108041155993	0.10753657611641317	-0.24578440143346142	1.0076001140512847	0.10338510950375598	-0.14929123641977532	0.7513763619655595	0.07050637620802298	-0.1767270576446962	0.7928094765911196	0.12024121385011508	-0.3444685952651748	1.0777634775935656	0.19653479933932227	1.2265396078208566	1.0370287026944291	0.18628630839146426	1.4904814145599086	0.9190061842894433	0.17640788327780257	1.3654519091630029	0.8755958655314954	0.35813417718057805	1.156484059471706	0.9913876820412371	0.5606563358975316	0.9735392141776211	0.9745321493382963	0.545574050136724	0.8072627548614383	0.8066010130212555	0.4466286225533961	0.736407187105601	0.7843074885062289	0.45485305673800214	0.7176897710766634	0.782789323727674	0.4794435744023736	0.6868692486950666	0.8065439294016884	0.03952428505741574	1.1584338022022111	1.0113664432346963	-0.15486325699861855	0.9645637902164901	1.0246114751235855	-0.19484541259747207	0.7664909277767205	0.9013962633516603	-0.11809659235989758	0.6889395148551309	0.8746394249985212	-0.13784009593127294	0.6810867078402735	0.8500489012063128	-0.1624171107462532	0.6575288001477323	0.8662484780599584	
54	1.148936170212766	0.3143301698542706	0.6561467795739743	0.9987713819387889	0.25703795474843216	0.24528900935828002	0.9241697242867388	0.28951821741832723	-0.23418843160492003	0.9834553008745079	0.22343479974245667	-0.15083833734475266	0.7336674964994897	0.28077827097823144	-0.19255787644831862	0.7783073938422711	0.28653703423397253	-0.3535757291267121	1.0800868941433774	0.09497753041888655	0.664427985716743	0.9998249092890973	0.11494416735261329	0.2162075841901821	0.9831241373326626	0.10684127640476236	-0.24625274743997844	1.0072749814815496	0.10313317454627312	-0.15026083545625118	0.7517456980150237	0.07028379037747598	-0.17818091820261886	0.793467111642415	0.1198271913044962	-0.34459586411474247	1.0770900844257747	0.19679414329975292	1.2271337935845432	1.0375052432344034	0.1806823752125889	1.4902582736103527	0.9142367212540096	0.17322400039636598	1.366188727632122	0.873656605561655	0.36042785208572586	1.1594995458565758	0.9921003391343403	0.5762681484018577	0.9876042218790786	0.9698468321741264	0.5852293868776888	0.8199063940958328	0.8088631903643086	0.48786697559009495	0.74717946487275	0.7771014640079974	0.4968833026064518	0.725386751647845	0.7850687334618908	0.5198270455908944	0.6945482313072376	0.8091934620391024	0.03940856991937981	1.1602831653879244	1.0113646049066498	-0.16694761534759625	0.983387729618852	1.0123393416599116	-0.24045629079607794	0.7780233801364158	0.9163090887010373	-0.16610915135720183	0.6881420603137516	0.891893795614054	-0.18535085913778285	0.6787740362882834	0.8744216116244863	-0.20653915840985776	0.6701033796303278	0.8806796371661969	
55	1.1702127659574468	0.3135357820483489	0.6584062204165719	0.9999119859745583	0.25653301767805753	0.24684135598852786	0.9212988897664708	0.28924671782106187	-0.2337316125239745	0.9827367646115623	0.22423142142909597	-0.14984504128352072	0.7302392642459263	0.2829292485010931	-0.1948001304107718	0.7798224238225422	0.28604101336381144	-0.3534375631787284	1.0806252730395791	0.09544560514061383	0.6659777428155861	1.0000947641298712	0.1153530876438779	0.21789768502143253	0.9812399345598157	0.10617948813011113	-0.2466717738501637	1.0068686343817284	0.10294977475102288	-0.1509778039463076	0.7517063980123115	0.07015744552016152	-0.1792790608077811	0.7936314404051671	0.11958452911077179	-0.34486402271390465	1.076671665381332	0.1973295125937683	1.2276561994990605	1.0377764889677428	0.17607633033191644	1.4903106438815037	0.9117977206560408	0.1705621019733374	1.3668078085786037	0.8711926721582139	0.362450455207298	1.1623349021186569	0.9928232899134226	0.5895832079782286	1.000754683847011	0.969591215426391	0.6194507842791586	0.8351959461380811	0.8088561112755173	0.5243071089153899	0.7606889043810268	0.768217581523734	0.5340441580278548	0.7346573435192973	0.7813776454175991	0.5550494140892283	0.7041426470998363	0.8075188404402899	0.03926596145481585	1.1620763786633188	1.0116557824896995	-0.17821310967279133	0.9984516552346027	1.0048612796460106	-0.27960339428974285	0.7924470434270198	0.9299567861211966	-0.20938105880291946	0.6913528129472164	0.9105684029944539	-0.2298709855513189	0.6790912949994056	0.9005475176066383	-0.2469821004794573	0.6875090285717027	0.8953834352304975	
56	1.1914893617021276	0.31255822761059704	0.6599148456953997	1.0005207975852348	0.2563144659037917	0.24778747782386168	0.9191082713720311	0.28889032507668116	-0.23308601310031568	0.9816454624501147	0.2251447317674808	-0.1486603631577389	0.7264035361630286	0.28566217761563045	-0.19698315676616435	0.7813778081272541	0.28553530847402203	-0.3529352214071277	1.081028300074859	0.09569923159594304	0.6666850873681056	1.000271568436355	0.11558607741645405	0.2191442178231522	0.9798746185319611	0.1055858149490996	-0.2470548055226632	1.0064434220066747	0.10296595240349868	-0.15178379825643273	0.7516653554927106	0.06999962174383642	-0.17985220700245563	0.793249189276559	0.11960083479399454	-0.34543955942011006	1.076741616024779	0.19809462716471274	1.2279867108577738	1.0379071515385552	0.17303708561966596	1.4907569953318942	0.9119740785475008	0.16875941555077267	1.3671092334998152	0.8690618603724711	0.3639130166191755	1.164905923834458	0.9929729511231334	0.5992822295445988	1.0120924462112824	0.9744144188138923	0.6455877230302856	0.8526202209514548	0.8069389746579212	0.5531413169049557	0.7771514570619177	0.7568354321225483	0.5644303432038916	0.7465248963707768	0.7713104838280378	0.5857432078468857	0.7170269135943083	0.8028170678175416	0.03913004467288546	1.1638203780172904	1.0115909045006952	-0.1879403031893303	1.0098916476433297	1.0029491777868604	-0.3093872264331185	0.8096834526859501	0.9413880905212275	-0.2459231306294291	0.6991962730359622	0.928315634280753	-0.26980682412399093	0.6846620255306703	0.9251805887916624	-0.2813560681729467	0.7095294483182901	0.910676823452221	
